<?xml version="1.0" encoding="UTF-8" standalone="no"?>
<svg
   xmlns:dc="http://purl.org/dc/elements/1.1/"
   xmlns:cc="http://creativecommons.org/ns#"
   xmlns:rdf="http://www.w3.org/1999/02/22-rdf-syntax-ns#"
   xmlns:svg="http://www.w3.org/2000/svg"
   xmlns="http://www.w3.org/2000/svg"
   xmlns:sodipodi="http://sodipodi.sourceforge.net/DTD/sodipodi-0.dtd"
   xmlns:inkscape="http://www.inkscape.org/namespaces/inkscape"
   enable-background="new 0 0 128 128"
   version="1.1"
   viewBox="0 0 128 128"
   xml:space="preserve"
   id="svg34"
   sodipodi:docname="if_Weather_669958.svg"
   inkscape:version="0.92.2 (5c3e80d, 2017-08-06)"><metadata
     id="metadata40"><rdf:RDF><cc:Work
         rdf:about=""><dc:format>image/svg+xml</dc:format><dc:type
           rdf:resource="http://purl.org/dc/dcmitype/StillImage" /></cc:Work></rdf:RDF></metadata><defs
     id="defs38" /><sodipodi:namedview
     pagecolor="#ffffff"
     bordercolor="#666666"
     borderopacity="1"
     objecttolerance="10"
     gridtolerance="10"
     guidetolerance="10"
     inkscape:pageopacity="0"
     inkscape:pageshadow="2"
     inkscape:window-width="1920"
     inkscape:window-height="1031"
     id="namedview36"
     showgrid="false"
     inkscape:zoom="1.84375"
     inkscape:cx="65.084746"
     inkscape:cy="64"
     inkscape:window-x="0"
     inkscape:window-y="24"
     inkscape:window-maximized="1"
     inkscape:current-layer="svg34" /><g
     id="Layer_1"><rect
       fill="#F4F5F5"
       height="1520"
       opacity="0"
       width="727.938"
       x="-379.984"
       y="-731"
       id="rect2" /></g><circle
     cx="47.360001"
     cy="46.722"
     r="25.167"
     id="circle19"
     style="fill:#ffcc07" /><circle
     cx="47.360001"
     cy="46.722"
     r="17.181999"
     id="circle21"
     style="fill:#f4ec4e" /><circle
     cx="47.360001"
     cy="46.722"
     r="8.6820002"
     id="circle23"
     style="fill:#f5ecdf" /><path
     d="m 97.633,62.205 c 0.681,-2.096 1.061,-4.327 1.061,-6.65 0,-11.874 -9.626,-21.5 -21.5,-21.5 -9.046,0 -16.772,5.593 -19.947,13.504 -2.813,-1.787 -6.14,-2.837 -9.72,-2.837 -10.009,0 -18.124,8.095 -18.163,18.095 -6.995,2.527 -12.169,9.205 -12.169,17.071 0,9.967 7.805,18.05 17.805,18.157 V 98 h 58.527 c 10.033,0 18.167,-8.106 18.167,-18.139 -0.001,-8.619 -6.009,-15.792 -14.061,-17.656 z"
     id="path25"
     inkscape:connector-curvature="0"
     style="fill:#6ac5f0" /><path
     d="m 57.247,47.559 c -2.813,-1.787 -6.14,-2.837 -9.72,-2.837 -10.009,0 -18.124,8.095 -18.163,18.095 -6.995,2.527 -12.169,9.205 -12.169,17.071 0,3.964 1.25,7.618 3.366,10.603 -0.942,-2.244 -1.469,-4.714 -1.469,-7.314 0,-8.001 5.499,-14.795 12.624,-17.365 0.04,-10.172 8.306,-18.407 18.502,-18.407 3.646,0 7.036,1.068 9.901,2.886 3.234,-8.047 11.104,-13.736 20.319,-13.736 4.056,0 7.851,1.105 11.109,3.024 -3.808,-3.423 -8.828,-5.524 -14.352,-5.524 -9.047,0 -16.774,5.593 -19.948,13.504 z"
     id="path27"
     inkscape:connector-curvature="0"
     style="fill:#a8dbee" /><path
     d="m 73.519,67.819 c -1.978,-1.257 -4.317,-1.995 -6.834,-1.995 -7.037,0 -12.742,5.691 -12.77,12.722 -4.918,1.776 -8.556,6.472 -8.556,12.002 0,2.787 0.879,5.356 2.366,7.454 -0.662,-1.577 -1.033,-3.314 -1.033,-5.142 0,-5.625 3.866,-10.402 8.876,-12.209 0.028,-7.152 5.84,-12.941 13.008,-12.941 2.564,0 4.947,0.751 6.961,2.029 2.274,-5.657 7.807,-9.657 14.285,-9.657 2.851,0 5.52,0.777 7.81,2.126 -2.677,-2.407 -6.207,-3.884 -10.09,-3.884 -6.359,0.002 -11.791,3.934 -14.023,9.495 z"
     id="path29"
     inkscape:connector-curvature="0"
     style="fill:#a8dbee" /></svg>